<svg width="525" height="122" viewBox="0 0 525 122" fill="none" xmlns="http://www.w3.org/2000/svg">
<path id="Chase" d="M86.7266 43.5527L82.751 46.1807C80.3252 42.5869 77.1582 39.7568 73.25 37.6904C69.3867 35.5791 65.1865 34.5234 60.6494 34.5234C53.2822 34.5234 46.9932 37.1289 41.7822 42.3398C36.5713 47.5508 33.9658 53.8398 33.9658 61.207C33.9658 68.5742 36.5713 74.8633 41.7822 80.0742C46.9932 85.2852 53.2822 87.8906 60.6494 87.8906C65.1865 87.8906 69.3867 86.835 73.25 84.7236C77.1582 82.6123 80.3252 79.7598 82.751 76.166L86.6592 78.9961C83.7842 83.2188 80.0557 86.5654 75.4736 89.0361C70.8916 91.5068 65.9502 92.7422 60.6494 92.7422C56.3818 92.7422 52.2939 91.9111 48.3857 90.249C44.5225 88.5869 41.1758 86.3408 38.3457 83.5107C35.5156 80.6807 33.2695 77.334 31.6074 73.4707C29.9453 69.5625 29.1143 65.4746 29.1143 61.207C29.1143 56.9395 29.9453 52.874 31.6074 49.0107C33.2695 45.1025 35.5156 41.7334 38.3457 38.9033C41.1758 36.0732 44.5225 33.8271 48.3857 32.165C52.2939 30.5029 56.3818 29.6719 60.6494 29.6719C65.9951 29.6719 70.959 30.9297 75.541 33.4453C80.123 35.916 83.8516 39.2852 86.7266 43.5527ZM94.7451 38.0273L90.7021 40.6553C87.3779 35.8037 83.0654 31.9629 77.7646 29.1328C72.5088 26.2578 66.8037 24.8203 60.6494 24.8203C54.0459 24.8203 47.959 26.46 42.3887 29.7393C36.8184 32.9736 32.3936 37.376 29.1143 42.9463C25.8799 48.5166 24.2627 54.6035 24.2627 61.207C24.2627 67.8105 25.8799 73.8975 29.1143 79.4678C32.3936 85.0381 36.8184 89.4629 42.3887 92.7422C47.959 95.9766 54.0459 97.5938 60.6494 97.5938C66.8037 97.5938 72.5312 96.1562 77.832 93.2812C83.1328 90.4062 87.4453 86.5205 90.7695 81.624L94.7451 84.3867C90.9717 89.957 86.0752 94.3594 80.0557 97.5938C74.0811 100.828 67.6123 102.445 60.6494 102.445C53.1924 102.445 46.2969 100.604 39.9629 96.9199C33.6289 93.2363 28.6201 88.2275 24.9365 81.8936C21.2529 75.5596 19.4111 68.6641 19.4111 61.207C19.4111 53.75 21.2529 46.8545 24.9365 40.5205C28.6201 34.1865 33.6289 29.1777 39.9629 25.4941C46.2969 21.8105 53.1924 19.9688 60.6494 19.9688C67.6123 19.9688 74.0811 21.5859 80.0557 24.8203C86.0752 28.0547 90.9717 32.457 94.7451 38.0273ZM102.831 32.6367L98.7881 35.2646C94.5654 29.0654 89.085 24.1689 82.3467 20.5752C75.6533 16.9365 68.4209 15.1172 60.6494 15.1172C54.4053 15.1172 48.4307 16.3301 42.7256 18.7559C37.0205 21.1816 32.1016 24.4609 27.9688 28.5938C23.8809 32.6816 20.624 37.5781 18.1982 43.2832C15.7725 48.9883 14.5596 54.9629 14.5596 61.207C14.5596 67.4512 15.7725 73.4258 18.1982 79.1309C20.624 84.8359 23.8809 89.7549 27.9688 93.8877C32.1016 97.9756 37.0205 101.232 42.7256 103.658C48.4307 106.084 54.4053 107.297 60.6494 107.297C68.4658 107.297 75.7207 105.478 82.4141 101.839C89.1074 98.2002 94.5654 93.2812 98.7881 87.082L102.696 89.9795C98.0244 96.8076 91.9824 102.221 84.5703 106.219C77.2031 110.172 69.2295 112.148 60.6494 112.148C51.4404 112.148 42.9277 109.88 35.1113 105.343C27.2949 100.761 21.0957 94.5615 16.5137 86.7451C11.9766 78.9287 9.70801 70.416 9.70801 61.207C9.70801 51.998 11.9766 43.4854 16.5137 35.6689C21.0957 27.8525 27.2949 21.6758 35.1113 17.1387C42.9277 12.5566 51.4404 10.2656 60.6494 10.2656C69.2744 10.2656 77.293 12.2871 84.7051 16.3301C92.1172 20.3281 98.1592 25.7637 102.831 32.6367ZM110.782 27.1113L106.739 29.7393C101.618 22.2373 94.9922 16.3076 86.8613 11.9502C78.7754 7.59277 70.0381 5.41406 60.6494 5.41406C53.1025 5.41406 45.8701 6.89648 38.9521 9.86133C32.0791 12.7812 26.1494 16.7344 21.1631 21.7207C16.1768 26.707 12.2012 32.6592 9.23633 39.5771C6.31641 46.4502 4.85645 53.6602 4.85645 61.207C4.85645 68.7539 6.31641 75.9863 9.23633 82.9043C12.2012 89.7773 16.1768 95.707 21.1631 100.693C26.1494 105.68 32.0791 109.655 38.9521 112.62C45.8701 115.54 53.1025 117 60.6494 117C70.0381 117 78.7979 114.799 86.9287 110.396C95.0596 105.994 101.686 100.042 106.807 92.54L110.715 95.5049C105.145 103.591 97.957 110.015 89.1523 114.776C80.3477 119.493 70.8467 121.852 60.6494 121.852C52.4287 121.852 44.5674 120.234 37.0654 117C29.6084 113.811 23.1621 109.521 17.7266 104.13C12.3359 98.6943 8.02344 92.248 4.78906 84.791C1.59961 77.2891 0.00488281 69.4277 0.00488281 61.207C0.00488281 52.9863 1.59961 45.1475 4.78906 37.6904C8.02344 30.1885 12.3359 23.7422 17.7266 18.3516C23.1621 12.916 29.6084 8.60352 37.0654 5.41406C44.5674 2.17969 52.4287 0.5625 60.6494 0.5625C70.8916 0.5625 80.415 2.94336 89.2197 7.70508C98.0244 12.4668 105.212 18.9355 110.782 27.1113ZM217.247 19.9688H222.099V117H217.247V19.9688ZM120.148 19.9688H125V117H120.148V19.9688ZM207.544 19.9688H212.396V117H207.544V19.9688ZM197.841 19.9688H202.692V117H197.841V19.9688ZM188.138 19.9688H192.989V117H188.138V78.1875H154.109V117H149.258V19.9688H154.109V53.9297H188.138V19.9688ZM139.555 19.9688H144.406V117H139.555V19.9688ZM129.852 19.9688H134.703V117H129.852V19.9688ZM188.138 73.3359V68.4844H154.109V73.3359H188.138ZM188.138 63.6328V58.7812H154.109V63.6328H188.138ZM303.699 69.1582C303.699 63.4082 301.925 58.9609 298.376 55.8164C294.827 52.6719 290.133 51.0996 284.293 51.0996C279.352 51.0996 275.106 52.8066 271.558 56.2207C268.009 59.6348 266.234 63.7227 266.234 68.4844C266.234 71.1797 266.594 73.6055 267.312 75.7617C268.031 77.873 268.997 79.6475 270.21 81.085C271.468 82.4775 272.95 83.6455 274.657 84.5889C276.364 85.4873 278.139 86.1387 279.98 86.543C281.867 86.9473 283.866 87.1494 285.978 87.1494C291.099 87.1494 295.771 85.8916 299.993 83.376V88.2275C295.636 90.5186 290.941 91.6641 285.91 91.6641C282.676 91.6641 279.621 91.2373 276.746 90.3838C273.916 89.4854 271.333 88.1602 268.997 86.4082C266.661 84.6113 264.797 82.1855 263.404 79.1309C262.057 76.0312 261.383 72.4824 261.383 68.4844C261.383 62.2852 263.562 57.0293 267.919 52.7168C272.276 48.4043 277.734 46.248 284.293 46.248C291.525 46.248 297.365 48.292 301.812 52.3799C306.305 56.4229 308.551 62.0156 308.551 69.1582V117H303.699V69.1582ZM318.254 69.1582V117H313.402V69.1582C313.402 60.668 310.685 53.9297 305.249 48.9434C299.813 43.9121 292.828 41.3965 284.293 41.3965C276.387 41.3965 269.783 44.0244 264.482 49.2803C259.182 54.5361 256.531 60.9375 256.531 68.4844C256.531 73.0664 257.317 77.1768 258.89 80.8154C260.507 84.4541 262.686 87.374 265.426 89.5752C268.166 91.7764 271.221 93.4609 274.59 94.6289C278.004 95.752 281.598 96.3135 285.371 96.3135C290.492 96.3135 295.366 95.123 299.993 92.7422V97.8633C295.142 99.8848 290.245 100.896 285.304 100.896C280.856 100.896 276.634 100.222 272.636 98.874C268.638 97.4814 265.066 95.4824 261.922 92.877C258.777 90.2266 256.284 86.8125 254.442 82.6348C252.601 78.4121 251.68 73.6953 251.68 68.4844C251.68 59.6348 254.802 52.1104 261.046 45.9111C267.335 39.667 275.084 36.5449 284.293 36.5449C290.762 36.5449 296.557 37.8701 301.678 40.5205C306.799 43.126 310.842 46.9219 313.807 51.9082C316.771 56.8945 318.254 62.6445 318.254 69.1582ZM327.957 69.1582V117H323.105V69.1582C323.105 61.7461 321.398 55.1875 317.984 49.4824C314.615 43.7324 309.988 39.3301 304.104 36.2754C298.219 33.2207 291.615 31.6934 284.293 31.6934C277.33 31.6934 270.974 33.3555 265.224 36.6797C259.474 39.959 254.959 44.4062 251.68 50.0215C248.445 55.6367 246.828 61.791 246.828 68.4844C246.828 74.2344 247.884 79.4902 249.995 84.252C252.106 88.9688 254.937 92.8545 258.485 95.9092C262.079 98.9639 266.145 101.345 270.682 103.052C275.264 104.714 280.048 105.545 285.034 105.545C290.11 105.545 295.097 104.489 299.993 102.378V107.297C294.872 109.229 289.841 110.194 284.899 110.194C277.128 110.194 269.985 108.442 263.472 104.938C256.958 101.435 251.747 96.4707 247.839 90.0469C243.931 83.623 241.977 76.4355 241.977 68.4844C241.977 62.8242 243.055 57.4336 245.211 52.3125C247.412 47.1914 250.377 42.7666 254.105 39.0381C257.834 35.3096 262.326 32.3447 267.582 30.1436C272.838 27.9424 278.408 26.8418 284.293 26.8418C292.514 26.8418 299.926 28.5938 306.529 32.0977C313.178 35.6016 318.411 40.5879 322.229 47.0566C326.048 53.5254 327.957 60.8926 327.957 69.1582ZM337.66 69.1582V117H332.809V69.1582C332.809 59.9941 330.675 51.8184 326.407 44.6309C322.14 37.3984 316.322 31.8281 308.955 27.9199C301.588 23.9668 293.367 21.9902 284.293 21.9902C275.578 21.9902 267.604 24.0791 260.372 28.2568C253.14 32.4346 247.457 38.0947 243.324 45.2373C239.191 52.335 237.125 60.084 237.125 68.4844C237.125 74.0098 238.001 79.2656 239.753 84.252C241.55 89.1934 243.976 93.5283 247.03 97.2568C250.13 100.94 253.679 104.13 257.677 106.825C261.72 109.521 266.055 111.564 270.682 112.957C275.354 114.35 280.093 115.046 284.899 115.046C290.2 115.046 295.231 114.035 299.993 112.014V117C295.007 118.752 289.886 119.628 284.63 119.628C279.194 119.628 273.894 118.864 268.728 117.337C263.606 115.81 258.845 113.563 254.442 110.599C250.085 107.589 246.244 104.062 242.92 100.02C239.596 95.9316 236.99 91.1699 235.104 85.7344C233.217 80.2988 232.273 74.5488 232.273 68.4844C232.273 61.5215 233.576 54.8955 236.182 48.6064C238.832 42.2725 242.426 36.8145 246.963 32.2324C251.545 27.6055 257.07 23.9443 263.539 21.249C270.053 18.5088 276.971 17.1387 284.293 17.1387C291.75 17.1387 298.758 18.3965 305.316 20.9121C311.875 23.4277 317.535 26.9316 322.297 31.4238C327.059 35.8711 330.81 41.3516 333.55 47.8652C336.29 54.3789 337.66 61.4766 337.66 69.1582ZM394.262 70.8428H386.58C377.146 70.8428 369.892 68.9336 364.815 65.1152C359.739 61.252 357.201 55.9512 357.201 49.2129C357.201 42.9238 360.188 37.6904 366.163 33.5127C372.138 29.29 380.516 27.1787 391.297 27.1787C398.484 27.1787 405.178 28.167 411.377 30.1436C417.621 32.1201 422.81 34.9053 426.942 38.499L423.169 41.5312C419.485 38.5215 414.858 36.1855 409.288 34.5234C403.718 32.8613 397.721 32.0303 391.297 32.0303C381.818 32.0303 374.563 33.6475 369.532 36.8818C364.546 40.1162 362.053 44.2266 362.053 49.2129C362.053 54.6035 364.097 58.7588 368.185 61.6787C372.317 64.5537 378.449 65.9912 386.58 65.9912H393.992C403.561 65.9912 410.883 67.9229 415.959 71.7861C421.08 75.6045 423.641 80.8828 423.641 87.6211C423.641 93.9102 420.653 99.166 414.679 103.389C408.704 107.566 400.326 109.655 389.545 109.655C382.357 109.655 375.642 108.667 369.397 106.69C363.198 104.714 358.032 101.929 353.899 98.335L357.673 95.3027C361.356 98.3125 365.983 100.648 371.554 102.311C377.124 103.973 383.121 104.804 389.545 104.804C399.023 104.804 406.256 103.187 411.242 99.9521C416.273 96.7178 418.789 92.6074 418.789 87.6211C418.789 82.2305 416.723 78.0977 412.59 75.2227C408.502 72.3027 402.393 70.8428 394.262 70.8428ZM394.262 80.5459H386.58C374.092 80.5459 364.456 77.7158 357.673 72.0557C350.89 66.3506 347.498 58.7363 347.498 49.2129C347.498 44.8555 348.464 40.7676 350.396 36.9492C352.327 33.1309 355.09 29.7842 358.684 26.9092C362.322 23.9893 366.949 21.6982 372.564 20.0361C378.18 18.3291 384.424 17.4756 391.297 17.4756C399.967 17.4756 408.075 18.8008 415.622 21.4512C423.169 24.0566 429.458 27.7178 434.489 32.4346L430.581 35.332C425.999 31.1992 420.271 28.0098 413.398 25.7637C406.525 23.4727 399.158 22.3271 391.297 22.3271C379.168 22.3271 369.645 24.8877 362.727 30.0088C355.809 35.1299 352.35 41.5312 352.35 49.2129C352.35 57.3438 355.314 63.79 361.244 68.5518C367.174 73.3135 375.619 75.6943 386.58 75.6943H393.992C407.289 75.6943 413.938 79.6699 413.938 87.6211C413.938 91.2148 411.894 94.1797 407.806 96.5156C403.763 98.8066 397.676 99.9521 389.545 99.9521C383.84 99.9521 378.539 99.3008 373.643 97.998C368.746 96.6504 364.703 94.7412 361.514 92.2705L365.354 89.3057C370.97 93.1689 379.033 95.1006 389.545 95.1006C396.283 95.1006 401.225 94.4043 404.369 93.0117C407.514 91.6191 409.086 89.8223 409.086 87.6211C409.086 85.0605 407.985 83.2412 405.784 82.1631C403.583 81.085 399.742 80.5459 394.262 80.5459ZM394.262 61.1396H386.58C373.463 61.1396 366.904 57.1641 366.904 49.2129C366.904 45.6191 368.926 42.6768 372.969 40.3857C377.057 38.0498 383.166 36.8818 391.297 36.8818C397.002 36.8818 402.303 37.5557 407.199 38.9033C412.096 40.2061 416.139 42.0928 419.328 44.5635L415.487 47.5283C409.872 43.665 401.809 41.7334 391.297 41.7334C384.559 41.7334 379.617 42.4297 376.473 43.8223C373.328 45.2148 371.756 47.0117 371.756 49.2129C371.756 51.7734 372.856 53.5928 375.058 54.6709C377.259 55.749 381.1 56.2881 386.58 56.2881H394.262C406.75 56.2881 416.386 59.1406 423.169 64.8457C429.952 70.5059 433.344 78.0977 433.344 87.6211C433.344 91.9785 432.378 96.0664 430.446 99.8848C428.515 103.703 425.729 107.072 422.091 109.992C418.497 112.867 413.893 115.158 408.277 116.865C402.662 118.527 396.418 119.358 389.545 119.358C380.875 119.358 372.767 118.056 365.22 115.45C357.673 112.8 351.384 109.116 346.353 104.399L350.261 101.502C354.843 105.635 360.57 108.847 367.443 111.138C374.316 113.384 381.684 114.507 389.545 114.507C401.674 114.507 411.197 111.946 418.115 106.825C425.033 101.704 428.492 95.3027 428.492 87.6211C428.492 79.4902 425.527 73.0439 419.598 68.2822C413.668 63.5205 405.223 61.1396 394.262 61.1396ZM468.248 117H463.396V19.9688H468.248V117ZM458.545 117H453.693V19.9688H458.545V117ZM448.842 117H443.99V19.9688H448.842V117ZM477.951 92.7422H524.378V97.5938H477.951V102.445H524.378V107.297H477.951V112.148H524.378V117H473.1V19.9688H524.378V24.8203H477.951V29.6719H524.378V34.5234H477.951V39.375H524.378V44.2266H477.951V56.2881H521.683V61.1396H477.951V65.9912H521.683V70.8428H477.951V75.6943H521.683V80.5459H477.951V92.7422Z" fill="black"/>
</svg>
