<svg width="1780" height="140" viewBox="0 0 1780 140" fill="none" xmlns="http://www.w3.org/2000/svg">
<g id="track">
<rect id="Rectangle 1" width="1780" height="140" fill="#6788AF"/>
<g id="start">
<rect id="Rectangle 13" width="25" height="20" fill="#C4C4C4"/>
<rect id="Rectangle 15" width="25" height="20" fill="#4E9C00"/>
<rect id="Rectangle 17" y="20" width="25" height="20" fill="white"/>
<rect id="Rectangle 19" y="40" width="25" height="20" fill="#4E9C00"/>
<rect id="Rectangle 21" y="60" width="25" height="20" fill="white"/>
<rect id="Rectangle 23" y="80" width="25" height="20" fill="#4E9C00"/>
<rect id="Rectangle 25" y="100" width="25" height="20" fill="white"/>
<rect id="Rectangle 27" y="120" width="25" height="20" fill="#4E9C00"/>
<rect id="Rectangle 14" x="25" width="25" height="20" fill="#C4C4C4"/>
<rect id="Rectangle 16" x="25" width="25" height="20" fill="white"/>
<rect id="Rectangle 18" x="25" y="20" width="25" height="20" fill="#4E9C00"/>
<rect id="Rectangle 20" x="25" y="40" width="25" height="20" fill="white"/>
<rect id="Rectangle 22" x="25" y="60" width="25" height="20" fill="#4E9C00"/>
<rect id="Rectangle 24" x="25" y="80" width="25" height="20" fill="white"/>
<rect id="Rectangle 26" x="25" y="100" width="25" height="20" fill="#4E9C00"/>
<rect id="Rectangle 28" x="25" y="120" width="25" height="20" fill="white"/>
</g>
<g id="Finish">
<rect id="Rectangle 13_2" x="1730" width="25" height="20" fill="#C4C4C4"/>
<rect id="Rectangle 15_2" x="1730" width="25" height="20" fill="#FF0000"/>
<rect id="Rectangle 17_2" x="1730" y="20" width="25" height="20" fill="white"/>
<rect id="Rectangle 19_2" x="1730" y="40" width="25" height="20" fill="#FF0000"/>
<rect id="Rectangle 21_2" x="1730" y="60" width="25" height="20" fill="white"/>
<rect id="Rectangle 23_2" x="1730" y="80" width="25" height="20" fill="#FF0000"/>
<rect id="Rectangle 25_2" x="1730" y="100" width="25" height="20" fill="white"/>
<rect id="Rectangle 27_2" x="1730" y="120" width="25" height="20" fill="#FF0000"/>
<rect id="Rectangle 14_2" x="1755" width="25" height="20" fill="#C4C4C4"/>
<rect id="Rectangle 16_2" x="1755" width="25" height="20" fill="white"/>
<rect id="Rectangle 18_2" x="1755" y="20" width="25" height="20" fill="#FF0000"/>
<rect id="Rectangle 20_2" x="1755" y="40" width="25" height="20" fill="white"/>
<rect id="Rectangle 22_2" x="1755" y="60" width="25" height="20" fill="#FF0000"/>
<rect id="Rectangle 24_2" x="1755" y="80" width="25" height="20" fill="white"/>
<rect id="Rectangle 26_2" x="1755" y="100" width="25" height="20" fill="#FF0000"/>
<rect id="Rectangle 28_2" x="1755" y="120" width="25" height="20" fill="white"/>
</g>
<path id="50%" d="M851.392 74.88L844.832 74.48C844.965 72.9867 845.138 71.3733 845.352 69.64C845.565 67.88 845.778 66.0933 845.992 64.28C846.232 62.44 846.472 60.64 846.712 58.88C846.952 57.12 847.178 55.4933 847.392 54L853.992 54.16C853.938 54.4267 853.885 54.72 853.832 55.04C855.112 54.96 856.472 54.8933 857.912 54.84C859.352 54.76 860.752 54.7067 862.112 54.68C863.472 54.6533 864.658 54.64 865.672 54.64C866.178 54.64 866.632 54.6533 867.032 54.68C867.432 54.68 867.752 54.68 867.992 54.68L867.672 61.24C867.165 61.2133 866.645 61.2 866.112 61.2C865.578 61.2 865.005 61.2 864.392 61.2C862.578 61.2 860.672 61.24 858.672 61.32C856.672 61.4 854.738 61.52 852.872 61.68C852.765 62.5333 852.658 63.4 852.552 64.28C852.472 65.16 852.378 66.0267 852.272 66.88C853.232 66.4 854.205 66.08 855.192 65.92C856.205 65.76 857.165 65.68 858.072 65.68C860.258 65.68 862.165 66.1333 863.792 67.04C865.445 67.92 866.725 69.16 867.632 70.76C868.538 72.36 868.992 74.2267 868.992 76.36C868.992 79 868.458 81.28 867.392 83.2C866.352 85.0933 864.845 86.5467 862.872 87.56C860.925 88.6 858.592 89.12 855.872 89.12C853.365 89.12 850.952 88.5467 848.632 87.4C846.338 86.28 844.472 84.7333 843.032 82.76L847.472 77.92C850.112 81.04 852.925 82.6 855.912 82.6C858.045 82.6 859.672 82.0667 860.792 81C861.912 79.9333 862.472 78.4267 862.472 76.48C862.472 74.9333 862.018 73.7467 861.112 72.92C860.205 72.0933 858.898 71.68 857.192 71.68C855.752 71.68 854.632 71.8933 853.832 72.32C853.032 72.7467 852.445 73.2133 852.072 73.72C851.725 74.2267 851.498 74.6133 851.392 74.88ZM885.968 89.12C883.941 89.12 882.128 88.64 880.528 87.68C878.928 86.7467 877.568 85.4667 876.448 83.84C875.355 82.2133 874.515 80.3733 873.928 78.32C873.341 76.2667 873.048 74.1333 873.048 71.92C873.048 69.28 873.408 66.8 874.128 64.48C874.875 62.1333 875.941 60.04 877.328 58.2C878.715 56.36 880.381 54.84 882.328 53.64L882.888 54.84C884.195 54.1733 885.608 53.84 887.128 53.84C889.315 53.84 891.221 54.32 892.848 55.28C894.501 56.2133 895.861 57.4933 896.928 59.12C898.021 60.72 898.835 62.52 899.368 64.52C899.928 66.52 900.208 68.5867 900.208 70.72C900.208 73.8933 899.795 76.64 898.968 78.96C898.168 81.28 897.088 83.1867 895.728 84.68C894.368 86.1733 892.835 87.28 891.128 88C889.448 88.7467 887.728 89.12 885.968 89.12ZM879.608 72.28C879.608 73.24 879.701 74.32 879.888 75.52C880.101 76.72 880.461 77.8667 880.968 78.96C881.475 80.0267 882.155 80.92 883.008 81.64C883.888 82.3333 885.008 82.68 886.368 82.68C887.835 82.68 889.115 82.1867 890.208 81.2C891.301 80.1867 892.155 78.7867 892.768 77C893.408 75.2133 893.728 73.1467 893.728 70.8C893.728 68.4533 893.368 66.5333 892.648 65.04C891.955 63.52 891.075 62.4 890.008 61.68C888.968 60.9333 887.915 60.56 886.848 60.56C886.288 60.56 885.755 60.72 885.248 61.04C884.741 61.36 884.341 61.7867 884.048 62.32L883.488 61.12C882.235 62.3733 881.341 63.64 880.808 64.92C880.275 66.2 879.941 67.4667 879.808 68.72C879.675 69.9467 879.608 71.1333 879.608 72.28ZM909.434 89.76L904.674 86.08C905.287 85.3333 906.154 84.2533 907.274 82.84C908.421 81.4 909.727 79.76 911.194 77.92C912.661 76.08 914.194 74.1333 915.794 72.08C917.421 70.0267 919.034 67.9867 920.634 65.96C922.234 63.9067 923.727 62 925.114 60.24C926.527 58.4533 927.741 56.9067 928.754 55.6C929.794 54.2933 930.541 53.36 930.994 52.8L935.594 56.44C935.194 56.9467 934.554 57.76 933.674 58.88C932.794 59.9733 931.754 61.2933 930.554 62.84C929.354 64.36 928.047 66.0133 926.634 67.8C925.247 69.56 923.821 71.3733 922.354 73.24C920.914 75.08 919.501 76.8933 918.114 78.68C916.727 80.44 915.434 82.08 914.234 83.6C913.061 85.0933 912.047 86.3733 911.194 87.44C910.367 88.5333 909.781 89.3067 909.434 89.76ZM910.354 71.8C908.861 71.8 907.607 71.4933 906.594 70.88C905.581 70.24 904.767 69.44 904.154 68.48C903.541 67.52 903.101 66.52 902.834 65.48C902.567 64.4133 902.434 63.4533 902.434 62.6C902.434 61.8267 902.554 60.9067 902.794 59.84C903.061 58.7733 903.487 57.72 904.074 56.68C904.661 55.64 905.474 54.7733 906.514 54.08C907.581 53.3867 908.914 53.04 910.514 53.04C913.127 53.04 915.167 53.8533 916.634 55.48C918.127 57.08 918.874 59.3067 918.874 62.16C918.874 64.08 918.514 65.7733 917.794 67.24C917.101 68.68 916.114 69.8 914.834 70.6C913.554 71.4 912.061 71.8 910.354 71.8ZM910.514 66.04C912.221 66.04 913.074 64.7467 913.074 62.16C913.074 59.9467 912.247 58.84 910.594 58.84C909.874 58.84 909.301 59.1867 908.874 59.88C908.447 60.5467 908.234 61.4667 908.234 62.64C908.234 63.5467 908.461 64.3467 908.914 65.04C909.394 65.7067 909.927 66.04 910.514 66.04ZM930.154 89.6C928.581 89.6 927.261 89.2933 926.194 88.68C925.127 88.0667 924.261 87.28 923.594 86.32C922.954 85.36 922.487 84.36 922.194 83.32C921.901 82.2533 921.754 81.28 921.754 80.4C921.754 79.52 921.887 78.52 922.154 77.4C922.421 76.2533 922.874 75.16 923.514 74.12C924.154 73.0533 925.007 72.1733 926.074 71.48C927.167 70.7867 928.514 70.44 930.114 70.44C931.954 70.44 933.541 70.8133 934.874 71.56C936.234 72.3067 937.274 73.3733 937.994 74.76C938.741 76.12 939.114 77.7333 939.114 79.6C939.114 81.6267 938.741 83.4 937.994 84.92C937.274 86.4133 936.247 87.56 934.914 88.36C933.581 89.1867 931.994 89.6 930.154 89.6ZM930.234 83.8C931.194 83.8 931.941 83.4533 932.474 82.76C933.007 82.0667 933.274 81.1067 933.274 79.88C933.274 78.7333 933.021 77.8267 932.514 77.16C932.034 76.4667 931.394 76.12 930.594 76.12C929.767 76.12 929.141 76.3467 928.714 76.8C928.287 77.2533 927.994 77.7867 927.834 78.4C927.674 78.9867 927.594 79.5333 927.594 80.04C927.594 82.5467 928.474 83.8 930.234 83.8Z" fill="white"/>
</g>
</svg>
